<?xml version="1.0" encoding="UTF-8" standalone="no"?><svg xmlns="http://www.w3.org/2000/svg" xmlns:xlink="http://www.w3.org/1999/xlink" contentScriptType="application/ecmascript" contentStyleType="text/css" height="985px" preserveAspectRatio="none" style="width:579px;height:985px;" version="1.1" viewBox="0 0 579 985" width="579px" zoomAndPan="magnify"><defs><filter height="300%" id="f1fqoa1hr78mu" width="300%" x="-1" y="-1"><feGaussianBlur result="blurOut" stdDeviation="2.0"/><feColorMatrix in="blurOut" result="blurOut2" type="matrix" values="0 0 0 0 0 0 0 0 0 0 0 0 0 0 0 0 0 0 .4 0"/><feOffset dx="4.0" dy="4.0" in="blurOut2" result="blurOut3"/><feBlend in="SourceGraphic" in2="blurOut3" mode="normal"/></filter></defs><g><!--MD5=[e012f972f019d0f7836d3226899874dc]
cluster Parser--><polygon fill="#FFFFFF" filter="url(#f1fqoa1hr78mu)" points="16,6,74,6,81,28.2969,562,28.2969,562,978,16,978,16,6" style="stroke:#000000;stroke-width:1.5;"/><line style="stroke:#000000;stroke-width:1.5;" x1="16" x2="81" y1="28.2969" y2="28.2969"/><text fill="#000000" font-family="sans-serif" font-size="14" font-weight="bold" lengthAdjust="spacing" textLength="52" x="20" y="20.9951">Parser</text><!--MD5=[1e82b01da5aedaef29cfc123835101af]
cluster ToFormat--><polygon fill="#FFFFFF" filter="url(#f1fqoa1hr78mu)" points="79,206,160,206,167,228.2969,463,228.2969,463,400,79,400,79,206" style="stroke:#000000;stroke-width:1.5;"/><line style="stroke:#000000;stroke-width:1.5;" x1="79" x2="167" y1="228.2969" y2="228.2969"/><text fill="#000000" font-family="sans-serif" font-size="14" font-weight="bold" lengthAdjust="spacing" textLength="75" x="83" y="220.9951">ToFormat</text><!--MD5=[7e40339c58605559321960399585b560]
cluster Utils--><polygon fill="#FFFFFF" filter="url(#f1fqoa1hr78mu)" points="169,726,209,726,216,748.2969,409,748.2969,409,954,169,954,169,726" style="stroke:#000000;stroke-width:1.5;"/><line style="stroke:#000000;stroke-width:1.5;" x1="169" x2="216" y1="748.2969" y2="748.2969"/><text fill="#000000" font-family="sans-serif" font-size="14" font-weight="bold" lengthAdjust="spacing" textLength="34" x="173" y="740.9951">Utils</text><!--MD5=[e424aec602ffa2a1a2322113898a8a4a]
class Launch--><rect codeLine="3" fill="#FEFECE" filter="url(#f1fqoa1hr78mu)" height="91.1875" id="Launch" style="stroke:#A80036;stroke-width:1.5;" width="163" x="32.75" y="42.5"/><text fill="#000000" font-family="sans-serif" font-size="12" lengthAdjust="spacing" textLength="45" x="91.75" y="58.6387">Launch</text><line style="stroke:#A80036;stroke-width:1.5;" x1="33.75" x2="194.75" y1="66.4688" y2="66.4688"/><line style="stroke:#A80036;stroke-width:1.5;" x1="33.75" x2="194.75" y1="74.4688" y2="74.4688"/><text fill="#000000" font-family="sans-serif" font-size="11" lengthAdjust="spacing" textLength="117" x="38.75" y="88.6792">helpPDFtoFiles():void</text><text fill="#000000" font-family="sans-serif" font-size="11" lengthAdjust="spacing" textLength="151" x="38.75" y="101.4839">checkFolderExist():boolean</text><text fill="#000000" font-family="sans-serif" font-size="11" lengthAdjust="spacing" textLength="126" x="38.75" y="114.2886">checkOption():boolean</text><text fill="#000000" font-family="sans-serif" font-size="11" lengthAdjust="spacing" textLength="117" x="38.75" y="127.0933">finishMessage():void</text><!--MD5=[219f792abec548f6c8a55c1bc0e78179]
class PdfToPlainText--><rect codeLine="10" fill="#FEFECE" filter="url(#f1fqoa1hr78mu)" height="150.4375" id="PdfToPlainText" style="stroke:#A80036;stroke-width:1.5;" width="144" x="32" y="492"/><ellipse cx="56.45" cy="508" fill="#ADD1B2" rx="11" ry="11" style="stroke:#A80036;stroke-width:1.0;"/><path d="M59.4188,513.6406 Q58.8406,513.9375 58.2,514.0781 Q57.5594,514.2344 56.8563,514.2344 Q54.3563,514.2344 53.0281,512.5938 Q51.7156,510.9375 51.7156,507.8125 Q51.7156,504.6875 53.0281,503.0313 Q54.3563,501.375 56.8563,501.375 Q57.5594,501.375 58.2,501.5313 Q58.8563,501.6875 59.4188,501.9844 L59.4188,504.7031 Q58.7938,504.125 58.2,503.8594 Q57.6063,503.5781 56.9813,503.5781 Q55.6375,503.5781 54.95,504.6563 Q54.2625,505.7188 54.2625,507.8125 Q54.2625,509.9063 54.95,510.9844 Q55.6375,512.0469 56.9813,512.0469 Q57.6063,512.0469 58.2,511.7813 Q58.7938,511.5 59.4188,510.9219 L59.4188,513.6406 Z " fill="#000000"/><text fill="#000000" font-family="sans-serif" font-size="12" lengthAdjust="spacing" textLength="91" x="72.55" y="512.1543">PdfToPlainText</text><line style="stroke:#A80036;stroke-width:1.5;" x1="33" x2="175" y1="524" y2="524"/><text fill="#000000" font-family="sans-serif" font-size="11" lengthAdjust="spacing" textLength="87" x="38" y="538.2104">filename:String</text><text fill="#000000" font-family="sans-serif" font-size="11" lengthAdjust="spacing" textLength="59" x="38" y="551.0151">title:String</text><text fill="#000000" font-family="sans-serif" font-size="11" lengthAdjust="spacing" textLength="90" x="38" y="563.8198">authors:String[]</text><text fill="#000000" font-family="sans-serif" font-size="11" lengthAdjust="spacing" textLength="84" x="38" y="576.6245">emails:String[]</text><text fill="#000000" font-family="sans-serif" font-size="11" lengthAdjust="spacing" textLength="85" x="38" y="589.4292">abstract:String</text><text fill="#000000" font-family="sans-serif" font-size="11" lengthAdjust="spacing" textLength="108" x="38" y="602.2339">references:String[]</text><line style="stroke:#A80036;stroke-width:1.5;" x1="33" x2="175" y1="608.8281" y2="608.8281"/><text fill="#000000" font-family="sans-serif" font-size="11" lengthAdjust="spacing" textLength="91" x="38" y="623.0386">pdfToPlainText()</text><text fill="#000000" font-family="sans-serif" font-size="11" lengthAdjust="spacing" textLength="132" x="38" y="635.8433">fileProcessing(file):void</text><!--MD5=[39c2281ae53c3ff3a0b7fb6db148b969]
class FileManager--><rect codeLine="21" fill="#FEFECE" filter="url(#f1fqoa1hr78mu)" height="188.8516" id="FileManager" style="stroke:#A80036;stroke-width:1.5;" width="170" x="211" y="472.5"/><ellipse cx="253.9" cy="488.5" fill="#ADD1B2" rx="11" ry="11" style="stroke:#A80036;stroke-width:1.0;"/><path d="M256.8688,494.1406 Q256.2906,494.4375 255.65,494.5781 Q255.0094,494.7344 254.3063,494.7344 Q251.8063,494.7344 250.4781,493.0938 Q249.1656,491.4375 249.1656,488.3125 Q249.1656,485.1875 250.4781,483.5313 Q251.8063,481.875 254.3063,481.875 Q255.0094,481.875 255.65,482.0313 Q256.3063,482.1875 256.8688,482.4844 L256.8688,485.2031 Q256.2438,484.625 255.65,484.3594 Q255.0563,484.0781 254.4313,484.0781 Q253.0875,484.0781 252.4,485.1563 Q251.7125,486.2188 251.7125,488.3125 Q251.7125,490.4063 252.4,491.4844 Q253.0875,492.5469 254.4313,492.5469 Q255.0563,492.5469 255.65,492.2813 Q256.2438,492 256.8688,491.4219 L256.8688,494.1406 Z " fill="#000000"/><text fill="#000000" font-family="sans-serif" font-size="12" lengthAdjust="spacing" textLength="76" x="274.1" y="492.6543">FileManager</text><line style="stroke:#A80036;stroke-width:1.5;" x1="212" x2="380" y1="504.5" y2="504.5"/><text fill="#000000" font-family="sans-serif" font-size="11" lengthAdjust="spacing" textLength="103" x="217" y="518.7104">OS_NAME:boolean</text><text fill="#000000" font-family="sans-serif" font-size="11" lengthAdjust="spacing" textLength="87" x="217" y="531.5151">toFormat:Class</text><text fill="#000000" font-family="sans-serif" font-size="11" lengthAdjust="spacing" textLength="81" x="217" y="544.3198">FOLDER:String</text><text fill="#000000" font-family="sans-serif" font-size="11" lengthAdjust="spacing" textLength="130" x="217" y="557.1245">RESULT_FOLDER:String</text><line style="stroke:#A80036;stroke-width:1.5;" x1="212" x2="380" y1="563.7188" y2="563.7188"/><text fill="#000000" font-family="sans-serif" font-size="11" lengthAdjust="spacing" textLength="157" x="217" y="577.9292">fileManager(toTXT, FOLDER)</text><text fill="#000000" font-family="sans-serif" font-size="11" lengthAdjust="spacing" textLength="158" x="217" y="590.7339">fileManager(toXML, FOLDER)</text><text fill="#000000" font-family="sans-serif" font-size="11" lengthAdjust="spacing" textLength="132" x="217" y="603.5386">checkSystem():boolean</text><text fill="#000000" font-family="sans-serif" font-size="11" lengthAdjust="spacing" textLength="141" x="217" y="616.3433">createResultFolder():void</text><text fill="#000000" font-family="sans-serif" font-size="11" lengthAdjust="spacing" textLength="118" x="217" y="629.1479">writeTXT(String):void</text><text fill="#000000" font-family="sans-serif" font-size="11" lengthAdjust="spacing" textLength="119" x="217" y="641.9526">writeXML(String):void</text><text fill="#000000" font-family="sans-serif" font-size="11" lengthAdjust="spacing" textLength="141" x="217" y="654.7573">getFiles(FOLDER):String[]</text><!--MD5=[b0790323951fecc8260532d164f94d33]
class toTXT--><rect codeLine="36" fill="#FEFECE" filter="url(#f1fqoa1hr78mu)" height="124.8281" id="toTXT" style="stroke:#A80036;stroke-width:1.5;" width="182" x="122" y="250.5"/><ellipse cx="191.75" cy="266.5" fill="#ADD1B2" rx="11" ry="11" style="stroke:#A80036;stroke-width:1.0;"/><path d="M194.7188,272.1406 Q194.1406,272.4375 193.5,272.5781 Q192.8594,272.7344 192.1563,272.7344 Q189.6563,272.7344 188.3281,271.0938 Q187.0156,269.4375 187.0156,266.3125 Q187.0156,263.1875 188.3281,261.5313 Q189.6563,259.875 192.1563,259.875 Q192.8594,259.875 193.5,260.0313 Q194.1563,260.1875 194.7188,260.4844 L194.7188,263.2031 Q194.0938,262.625 193.5,262.3594 Q192.9063,262.0781 192.2813,262.0781 Q190.9375,262.0781 190.25,263.1563 Q189.5625,264.2188 189.5625,266.3125 Q189.5625,268.4063 190.25,269.4844 Q190.9375,270.5469 192.2813,270.5469 Q192.9063,270.5469 193.5,270.2813 Q194.0938,270 194.7188,269.4219 L194.7188,272.1406 Z " fill="#000000"/><text fill="#000000" font-family="sans-serif" font-size="12" lengthAdjust="spacing" textLength="34" x="212.25" y="270.6543">toTXT</text><line style="stroke:#A80036;stroke-width:1.5;" x1="123" x2="303" y1="282.5" y2="282.5"/><text fill="#000000" font-family="sans-serif" font-size="11" lengthAdjust="spacing" textLength="71" x="128" y="296.7104">folder:String</text><text fill="#000000" font-family="sans-serif" font-size="11" lengthAdjust="spacing" textLength="70" x="128" y="309.5151">files:String[]</text><text fill="#000000" font-family="sans-serif" font-size="11" lengthAdjust="spacing" textLength="87" x="128" y="322.3198">FM:FileManager</text><text fill="#000000" font-family="sans-serif" font-size="11" lengthAdjust="spacing" textLength="170" x="128" y="335.1245">pdfToPlainText:pdfToPlainText</text><line style="stroke:#A80036;stroke-width:1.5;" x1="123" x2="303" y1="341.7188" y2="341.7188"/><text fill="#000000" font-family="sans-serif" font-size="11" lengthAdjust="spacing" textLength="83" x="128" y="355.9292">toTXT(FOLDER)</text><text fill="#000000" font-family="sans-serif" font-size="11" lengthAdjust="spacing" textLength="69" x="128" y="368.7339">allPDF():void</text><!--MD5=[5bc8dace7986a60abe7ed13f297a389c]
class ToXML--><rect codeLine="45" fill="#FEFECE" filter="url(#f1fqoa1hr78mu)" height="99.2188" id="ToXML" style="stroke:#A80036;stroke-width:1.5;" width="99" x="339.75" y="263.5"/><ellipse cx="367.8" cy="279.5" fill="#ADD1B2" rx="11" ry="11" style="stroke:#A80036;stroke-width:1.0;"/><path d="M370.7688,285.1406 Q370.1906,285.4375 369.55,285.5781 Q368.9094,285.7344 368.2063,285.7344 Q365.7063,285.7344 364.3781,284.0938 Q363.0656,282.4375 363.0656,279.3125 Q363.0656,276.1875 364.3781,274.5313 Q365.7063,272.875 368.2063,272.875 Q368.9094,272.875 369.55,273.0313 Q370.2063,273.1875 370.7688,273.4844 L370.7688,276.2031 Q370.1438,275.625 369.55,275.3594 Q368.9563,275.0781 368.3313,275.0781 Q366.9875,275.0781 366.3,276.1563 Q365.6125,277.2188 365.6125,279.3125 Q365.6125,281.4063 366.3,282.4844 Q366.9875,283.5469 368.3313,283.5469 Q368.9563,283.5469 369.55,283.2813 Q370.1438,283 370.7688,282.4219 L370.7688,285.1406 Z " fill="#000000"/><text fill="#000000" font-family="sans-serif" font-size="12" lengthAdjust="spacing" textLength="38" x="384.7" y="283.6543">ToXML</text><line style="stroke:#A80036;stroke-width:1.5;" x1="340.75" x2="437.75" y1="295.5" y2="295.5"/><text fill="#000000" font-family="sans-serif" font-size="11" lengthAdjust="spacing" textLength="71" x="345.75" y="309.7104">folder:String</text><text fill="#000000" font-family="sans-serif" font-size="11" lengthAdjust="spacing" textLength="70" x="345.75" y="322.5151">files:String[]</text><text fill="#000000" font-family="sans-serif" font-size="11" lengthAdjust="spacing" textLength="87" x="345.75" y="335.3198">FM:FileManager</text><line style="stroke:#A80036;stroke-width:1.5;" x1="340.75" x2="437.75" y1="341.9141" y2="341.9141"/><text fill="#000000" font-family="sans-serif" font-size="11" lengthAdjust="spacing" textLength="84" x="345.75" y="356.1245">toXML(FOLDER)</text><!--MD5=[7cf14e0dd3486d8d3fee9df3ace8d945]
class TEXTMANIPULATION--><rect codeLine="54" fill="#FEFECE" filter="url(#f1fqoa1hr78mu)" height="176.0469" id="TEXTMANIPULATION" style="stroke:#A80036;stroke-width:1.5;" width="208" x="185" y="762"/><ellipse cx="226.1" cy="778" fill="#EB937F" rx="11" ry="11" style="stroke:#A80036;stroke-width:1.0;"/><path d="M230.2094,784 L222.4906,784 L222.4906,771.6094 L230.2094,771.6094 L230.2094,773.7656 L224.9438,773.7656 L224.9438,776.4375 L229.7094,776.4375 L229.7094,778.5938 L224.9438,778.5938 L224.9438,781.8438 L230.2094,781.8438 L230.2094,784 Z " fill="#000000"/><text fill="#000000" font-family="sans-serif" font-size="12" lengthAdjust="spacing" textLength="118" x="245.9" y="782.1543">TEXTMANIPULATION</text><line style="stroke:#A80036;stroke-width:1.5;" x1="186" x2="392" y1="794" y2="794"/><text fill="#000000" font-family="sans-serif" font-size="11" lengthAdjust="spacing" textLength="73" x="191" y="808.2104">REGEX_TITLE</text><text fill="#000000" font-family="sans-serif" font-size="11" lengthAdjust="spacing" textLength="97" x="191" y="821.0151">REGEX_AUTHORS</text><text fill="#000000" font-family="sans-serif" font-size="11" lengthAdjust="spacing" textLength="83" x="191" y="833.8198">REGEX_EMAILS</text><text fill="#000000" font-family="sans-serif" font-size="11" lengthAdjust="spacing" textLength="122" x="191" y="846.6245">REGEX_MULTI_EMAILS</text><text fill="#000000" font-family="sans-serif" font-size="11" lengthAdjust="spacing" textLength="102" x="191" y="859.4292">REGEX_ABSTRACT</text><text fill="#000000" font-family="sans-serif" font-size="11" lengthAdjust="spacing" textLength="125" x="191" y="872.2339">REGEX_NO_ABSTRACT</text><text fill="#000000" font-family="sans-serif" font-size="11" lengthAdjust="spacing" textLength="115" x="191" y="885.0386">REGEX_REFERENCES</text><line style="stroke:#A80036;stroke-width:1.5;" x1="186" x2="392" y1="891.6328" y2="891.6328"/><text fill="#000000" font-family="sans-serif" font-size="11" lengthAdjust="spacing" textLength="134" x="191" y="905.8433">cleanText(String):String</text><text fill="#000000" font-family="sans-serif" font-size="11" lengthAdjust="spacing" textLength="195" x="191" y="918.6479">arrangeTXT(PdfToPlainText):String</text><text fill="#000000" font-family="sans-serif" font-size="11" lengthAdjust="spacing" textLength="196" x="191" y="931.4526">arrangeXML(PdfToPlainText):String</text><!--MD5=[166a328d38684222d2d4716d7ec47078]
link Launch to ToFormat--><path codeLine="69" d="M108.601,133.591 C106.662,149.6063 104.3692,168.5438 102.014,187.9955 C101.4253,192.8584 100.8326,197.7534 100.2406,202.6429 C100.1666,203.2541 100.0926,203.8652 100.0186,204.4762 C99.9816,204.7817 99.9447,205.0871 99.9077,205.3925 " fill="none" id="Launch-to-ToFormat" style="stroke:#A80036;stroke-width:1.0;stroke-dasharray:7.0,7.0;"/><polygon fill="#A80036" points="99.9077,205.3925,104.9605,196.9385,100.5087,200.4287,97.0185,195.9769,99.9077,205.3925" style="stroke:#A80036;stroke-width:1.0;"/><text fill="#000000" font-family="sans-serif" font-size="13" lengthAdjust="spacing" textLength="50" x="106" y="177.0669">FOLDER</text><!--MD5=[d240692f4502dce9e0a77a14d5b8b3f8]
link ToXML to FileManager--><path codeLine="70" d="M366.713,362.563 C355.723,381.708 340.754,402.343 322,416 C311.192,423.87 301.1,413.363 293,424 C283.538,436.426 278.941,451.396 277.383,466.89 " fill="none" id="ToXML-to-FileManager" style="stroke:#A80036;stroke-width:1.0;stroke-dasharray:7.0,7.0;"/><polygon fill="#A80036" points="276.968,472.162,281.6626,463.504,277.3608,467.1775,273.6873,462.8756,276.968,472.162" style="stroke:#A80036;stroke-width:1.0;"/><text fill="#000000" font-family="sans-serif" font-size="13" lengthAdjust="spacing" textLength="50" x="294" y="437.0669">FOLDER</text><!--MD5=[c54150fcfc6a7b1f3825f296146b69f8]
link FileManager to ToXML--><path codeLine="73" d="M338.132,472.352 C342.306,462.174 346.345,451.914 350,442 C358.891,417.886 367.381,390.71 374.156,367.62 " fill="none" id="FileManager-to-ToXML" style="stroke:#A80036;stroke-width:1.0;stroke-dasharray:7.0,7.0;"/><polygon fill="#A80036" points="375.575,362.758,369.2129,370.2763,374.1737,367.5576,376.8923,372.5184,375.575,362.758" style="stroke:#A80036;stroke-width:1.0;"/><text fill="#000000" font-family="sans-serif" font-size="13" lengthAdjust="spacing" textLength="35" x="357" y="437.0669">files[]</text><!--MD5=[11016cc89ed524b295a52be7fa8898d1]
link ToXML to PdfToPlainText--><path codeLine="71" d="M368.414,362.675 C357.536,382.447 342.188,403.529 322,416 C296.111,431.993 282.124,412.377 254,424 C220.517,437.838 190.1,462.87 165.543,488.106 " fill="none" id="ToXML-to-PdfToPlainText" style="stroke:#A80036;stroke-width:1.0;stroke-dasharray:7.0,7.0;"/><polygon fill="#A80036" points="161.963,491.829,171.0843,488.114,165.4286,488.2249,165.3177,482.5691,161.963,491.829" style="stroke:#A80036;stroke-width:1.0;"/><text fill="#000000" font-family="sans-serif" font-size="13" lengthAdjust="spacing" textLength="18" x="255" y="437.0669">file</text><!--MD5=[d227a13005590fb95f2ef92a7653a3b4]
link ToXML to TEXTMANIPULATION--><path codeLine="72" d="M420.576,362.659 C430.8,381.106 440.831,402.789 446,424 C476.097,547.497 498.187,594.096 446,710 C434.86,734.741 416.9,756.857 397.034,775.781 " fill="none" id="ToXML-to-TEXTMANIPULATION" style="stroke:#A80036;stroke-width:1.0;stroke-dasharray:7.0,7.0;"/><polygon fill="#A80036" points="393.037,779.522,402.3408,776.2911,396.687,776.1048,396.8733,770.451,393.037,779.522" style="stroke:#A80036;stroke-width:1.0;"/><text fill="#000000" font-family="sans-serif" font-size="13" lengthAdjust="spacing" textLength="92" x="478" y="571.0669">PdfToPlainText</text><!--MD5=[12cb97fb3fea26b6fcebf7ad4e62440f]
link PdfToPlainText to TEXTMANIPULATION--><path codeLine="74" d="M152.849,642.197 C176.097,677.51 204.119,720.072 228.682,757.382 " fill="none" id="PdfToPlainText-to-TEXTMANIPULATION" style="stroke:#A80036;stroke-width:1.0;stroke-dasharray:7.0,7.0;"/><polygon fill="#A80036" points="231.66,761.905,230.0505,752.1885,228.9099,757.7292,223.3693,756.5886,231.66,761.905" style="stroke:#A80036;stroke-width:1.0;"/><text fill="#000000" font-family="sans-serif" font-size="13" lengthAdjust="spacing" textLength="38" x="198" y="705.0669">String</text></g></svg>